<svg width="101" height="40" viewBox="0 0 101 40" fill="none" xmlns="http://www.w3.org/2000/svg">
<path d="M17.7614 5.54545L14.8636 23H12.8182L5.59091 9.29545H5.42045L3.13636 23H1.02273L3.92045 5.54545H5.96591L13.2273 19.2841H13.3977L15.6818 5.54545H17.7614ZM23.0135 5.54545L26.3203 12.8068H26.4567L32.1499 5.54545H34.6385L27.718 14.2727L31.7408 23H29.2521L25.9453 15.875H25.8089L20.1158 23H17.6271L24.718 14.2727L20.5249 5.54545H23.0135ZM46.1847 10.0455C46.1847 9.10795 45.875 8.39773 45.2557 7.91477C44.6364 7.42614 43.7983 7.18182 42.7415 7.18182C41.9688 7.18182 41.2727 7.30682 40.6534 7.55682C40.0341 7.80682 39.5284 8.15057 39.1364 8.58807C38.7443 9.02557 38.5028 9.52273 38.4119 10.0795C38.3381 10.5455 38.3864 10.946 38.5568 11.2812C38.7273 11.6108 38.9688 11.8864 39.2812 12.108C39.5994 12.3239 39.9403 12.5028 40.304 12.6449C40.6676 12.7812 41.0028 12.892 41.3097 12.9773L43.0142 13.4545C43.4403 13.5739 43.9148 13.7386 44.4375 13.9489C44.9602 14.1591 45.4489 14.446 45.9034 14.8097C46.358 15.1676 46.7045 15.6278 46.9432 16.1903C47.1875 16.7528 47.2415 17.4432 47.1051 18.2614C46.946 19.2045 46.5568 20.0568 45.9375 20.8182C45.3239 21.5795 44.5114 22.1847 43.5 22.6335C42.4943 23.0824 41.321 23.3068 39.9801 23.3068C38.7301 23.3068 37.679 23.1051 36.8267 22.7017C35.9801 22.2983 35.3551 21.7358 34.9517 21.0142C34.554 20.2926 34.4006 19.4545 34.4915 18.5H36.6733C36.6165 19.1591 36.7472 19.7045 37.0653 20.1364C37.3835 20.5625 37.8267 20.8807 38.3949 21.0909C38.9631 21.2955 39.5938 21.3977 40.2869 21.3977C41.0938 21.3977 41.8381 21.267 42.5199 21.0057C43.2074 20.7386 43.7756 20.3693 44.2244 19.8977C44.679 19.4205 44.9574 18.8636 45.0597 18.2273C45.1619 17.6477 45.0824 17.1761 44.821 16.8125C44.5597 16.4489 44.1818 16.1534 43.6875 15.9261C43.1932 15.6989 42.6506 15.5 42.0597 15.3295L40.0142 14.7159C38.7188 14.3239 37.733 13.7642 37.0568 13.0369C36.3864 12.3097 36.1449 11.358 36.3324 10.1818C36.5028 9.20454 36.9148 8.35227 37.5682 7.625C38.2216 6.89205 39.0313 6.32386 39.9972 5.92045C40.9631 5.51136 42.0028 5.30682 43.1165 5.30682C44.2415 5.30682 45.2045 5.51136 46.0057 5.92045C46.8068 6.32386 47.4034 6.88352 47.7955 7.59943C48.1875 8.30966 48.3324 9.125 48.2301 10.0455H46.1847ZM58.6257 13.3352L58.3189 15.2102H50.6825L50.9893 13.3352H58.6257ZM66.1875 23.2386C64.9034 23.2386 63.8693 22.8892 63.0852 22.1903C62.3011 21.4858 61.7841 20.4659 61.5341 19.1307C61.2841 17.7898 61.3125 16.1705 61.6193 14.2727C61.9261 12.3864 62.429 10.7756 63.1278 9.44034C63.8267 8.09943 64.6875 7.0767 65.7102 6.37216C66.733 5.66193 67.8807 5.30682 69.1534 5.30682C70.4261 5.30682 71.4574 5.66193 72.2472 6.37216C73.0426 7.08239 73.571 8.10511 73.8324 9.44034C74.0994 10.7756 74.0739 12.3864 73.7557 14.2727C73.4375 16.1705 72.929 17.7869 72.2301 19.1222C71.5312 20.4574 70.6705 21.4773 69.6477 22.1818C68.625 22.8864 67.4716 23.2386 66.1875 23.2386ZM66.4943 21.3636C67.7727 21.3636 68.8665 20.75 69.7756 19.5227C70.6903 18.2898 71.3352 16.5398 71.7102 14.2727C71.9602 12.7614 72.0114 11.4744 71.8636 10.4119C71.7159 9.34943 71.3864 8.53977 70.875 7.98295C70.3636 7.42614 69.6875 7.14773 68.8466 7.14773C67.5852 7.14773 66.5 7.76989 65.5909 9.0142C64.6818 10.2528 64.0398 12.0057 63.6648 14.2727C63.4148 15.7841 63.3608 17.0682 63.5028 18.125C63.6449 19.1818 63.9688 19.9858 64.4744 20.5369C64.9801 21.0881 65.6534 21.3636 66.4943 21.3636ZM81.1875 23.2386C79.9034 23.2386 78.8693 22.8892 78.0852 22.1903C77.3011 21.4858 76.7841 20.4659 76.5341 19.1307C76.2841 17.7898 76.3125 16.1705 76.6193 14.2727C76.9261 12.3864 77.429 10.7756 78.1278 9.44034C78.8267 8.09943 79.6875 7.0767 80.7102 6.37216C81.733 5.66193 82.8807 5.30682 84.1534 5.30682C85.4261 5.30682 86.4574 5.66193 87.2472 6.37216C88.0426 7.08239 88.571 8.10511 88.8324 9.44034C89.0994 10.7756 89.0739 12.3864 88.7557 14.2727C88.4375 16.1705 87.929 17.7869 87.2301 19.1222C86.5312 20.4574 85.6705 21.4773 84.6477 22.1818C83.625 22.8864 82.4716 23.2386 81.1875 23.2386ZM81.4943 21.3636C82.7727 21.3636 83.8665 20.75 84.7756 19.5227C85.6903 18.2898 86.3352 16.5398 86.7102 14.2727C86.9602 12.7614 87.0114 11.4744 86.8636 10.4119C86.7159 9.34943 86.3864 8.53977 85.875 7.98295C85.3636 7.42614 84.6875 7.14773 83.8466 7.14773C82.5852 7.14773 81.5 7.76989 80.5909 9.0142C79.6818 10.2528 79.0398 12.0057 78.6648 14.2727C78.4148 15.7841 78.3608 17.0682 78.5028 18.125C78.6449 19.1818 78.9688 19.9858 79.4744 20.5369C79.9801 21.0881 80.6534 21.3636 81.4943 21.3636ZM99.5625 5.54545L96.6648 23H94.5511L97.0739 7.76136H96.9716L92.233 10.5909L92.608 8.44318L97.4489 5.54545H99.5625Z" fill="white"/>
<path d="M42.4261 30H41.1932C41.1203 29.6454 40.9927 29.3338 40.8104 29.0653C40.6314 28.7969 40.4126 28.5715 40.1541 28.3892C39.8989 28.2036 39.6155 28.0644 39.304 27.9716C38.9924 27.8788 38.6676 27.8324 38.3295 27.8324C37.7131 27.8324 37.1546 27.9882 36.6541 28.2997C36.157 28.6113 35.7609 29.0703 35.4659 29.6768C35.1742 30.2834 35.0284 31.0275 35.0284 31.9091C35.0284 32.7907 35.1742 33.5348 35.4659 34.1413C35.7609 34.7479 36.157 35.2069 36.6541 35.5185C37.1546 35.83 37.7131 35.9858 38.3295 35.9858C38.6676 35.9858 38.9924 35.9394 39.304 35.8466C39.6155 35.7538 39.8989 35.6162 40.1541 35.4339C40.4126 35.2483 40.6314 35.0213 40.8104 34.7528C40.9927 34.4811 41.1203 34.1695 41.1932 33.8182H42.4261C42.3333 34.3385 42.1643 34.8042 41.919 35.2152C41.6738 35.6262 41.3688 35.9759 41.0043 36.2642C40.6397 36.5492 40.2304 36.7663 39.7763 36.9155C39.3255 37.0646 38.8433 37.1392 38.3295 37.1392C37.4612 37.1392 36.6889 36.9271 36.0128 36.5028C35.3366 36.0786 34.8047 35.4754 34.4169 34.6932C34.0291 33.911 33.8352 32.983 33.8352 31.9091C33.8352 30.8352 34.0291 29.9072 34.4169 29.125C34.8047 28.3428 35.3366 27.7396 36.0128 27.3153C36.6889 26.8911 37.4612 26.679 38.3295 26.679C38.8433 26.679 39.3255 26.7536 39.7763 26.9027C40.2304 27.0518 40.6397 27.2706 41.0043 27.5589C41.3688 27.844 41.6738 28.192 41.919 28.603C42.1643 29.0107 42.3333 29.4763 42.4261 30ZM53.0094 31.9091C53.0094 32.983 52.8155 33.911 52.4277 34.6932C52.04 35.4754 51.508 36.0786 50.8319 36.5028C50.1557 36.9271 49.3835 37.1392 48.5151 37.1392C47.6467 37.1392 46.8745 36.9271 46.1983 36.5028C45.5222 36.0786 44.9902 35.4754 44.6025 34.6932C44.2147 33.911 44.0208 32.983 44.0208 31.9091C44.0208 30.8352 44.2147 29.9072 44.6025 29.125C44.9902 28.3428 45.5222 27.7396 46.1983 27.3153C46.8745 26.8911 47.6467 26.679 48.5151 26.679C49.3835 26.679 50.1557 26.8911 50.8319 27.3153C51.508 27.7396 52.04 28.3428 52.4277 29.125C52.8155 29.9072 53.0094 30.8352 53.0094 31.9091ZM51.8162 31.9091C51.8162 31.0275 51.6687 30.2834 51.3738 29.6768C51.0821 29.0703 50.686 28.6113 50.1855 28.2997C49.6884 27.9882 49.1316 27.8324 48.5151 27.8324C47.8986 27.8324 47.3401 27.9882 46.8397 28.2997C46.3425 28.6113 45.9464 29.0703 45.6515 29.6768C45.3598 30.2834 45.214 31.0275 45.214 31.9091C45.214 32.7907 45.3598 33.5348 45.6515 34.1413C45.9464 34.7479 46.3425 35.2069 46.8397 35.5185C47.3401 35.83 47.8986 35.9858 48.5151 35.9858C49.1316 35.9858 49.6884 35.83 50.1855 35.5185C50.686 35.2069 51.0821 34.7479 51.3738 34.1413C51.6687 33.5348 51.8162 32.7907 51.8162 31.9091ZM63.1564 26.8182V37H61.9632L56.415 29.0057H56.3155V37H55.0826V26.8182H56.2757L61.8439 34.8324H61.9434V26.8182H63.1564ZM71.1918 29.3636C71.1321 28.8598 70.8902 28.4688 70.4659 28.1903C70.0417 27.9119 69.5213 27.7727 68.9048 27.7727C68.4541 27.7727 68.0597 27.8456 67.7216 27.9915C67.3868 28.1373 67.125 28.3378 66.9361 28.593C66.7505 28.8482 66.6577 29.1383 66.6577 29.4631C66.6577 29.7348 66.7223 29.9685 66.8516 30.1641C66.9841 30.3563 67.1532 30.517 67.3587 30.6463C67.5642 30.7723 67.7796 30.8767 68.005 30.9595C68.2304 31.0391 68.4375 31.1037 68.6264 31.1534L69.6605 31.4318C69.9257 31.5014 70.2206 31.5975 70.5455 31.7202C70.8736 31.8428 71.1868 32.0102 71.4851 32.2223C71.7867 32.4311 72.0353 32.6996 72.2308 33.0277C72.4264 33.3558 72.5241 33.7585 72.5241 34.2358C72.5241 34.786 72.38 35.2831 72.0916 35.7273C71.8066 36.1714 71.389 36.5244 70.8388 36.7862C70.2919 37.0481 69.6274 37.179 68.8452 37.179C68.116 37.179 67.4846 37.0613 66.951 36.826C66.4207 36.5907 66.0031 36.2625 65.6982 35.8416C65.3965 35.4207 65.2259 34.9318 65.1861 34.375H66.4588C66.492 34.7595 66.6212 35.0777 66.8466 35.3295C67.0753 35.5781 67.3636 35.7637 67.7116 35.8864C68.063 36.0057 68.4408 36.0653 68.8452 36.0653C69.3158 36.0653 69.7384 35.9891 70.1129 35.8366C70.4875 35.6809 70.7841 35.4654 71.0028 35.1903C71.2216 34.9119 71.331 34.5871 71.331 34.2159C71.331 33.8778 71.2365 33.6027 71.0476 33.3906C70.8587 33.1785 70.6101 33.0062 70.3018 32.8736C69.9936 32.741 69.6605 32.625 69.3026 32.5256L68.0497 32.1676C67.2543 31.9389 66.6245 31.6125 66.1605 31.1882C65.6965 30.764 65.4645 30.2088 65.4645 29.5227C65.4645 28.9527 65.6186 28.4555 65.9268 28.0312C66.2384 27.6037 66.656 27.2723 67.1797 27.0369C67.7067 26.7983 68.295 26.679 68.9446 26.679C69.6009 26.679 70.1842 26.7966 70.6946 27.032C71.205 27.264 71.6094 27.5821 71.9077 27.9865C72.2093 28.3909 72.3684 28.8499 72.3849 29.3636H71.1918ZM83.1422 31.9091C83.1422 32.983 82.9483 33.911 82.5605 34.6932C82.1728 35.4754 81.6408 36.0786 80.9647 36.5028C80.2885 36.9271 79.5163 37.1392 78.6479 37.1392C77.7795 37.1392 77.0073 36.9271 76.3311 36.5028C75.655 36.0786 75.123 35.4754 74.7353 34.6932C74.3475 33.911 74.1536 32.983 74.1536 31.9091C74.1536 30.8352 74.3475 29.9072 74.7353 29.125C75.123 28.3428 75.655 27.7396 76.3311 27.3153C77.0073 26.8911 77.7795 26.679 78.6479 26.679C79.5163 26.679 80.2885 26.8911 80.9647 27.3153C81.6408 27.7396 82.1728 28.3428 82.5605 29.125C82.9483 29.9072 83.1422 30.8352 83.1422 31.9091ZM81.949 31.9091C81.949 31.0275 81.8016 30.2834 81.5066 29.6768C81.2149 29.0703 80.8188 28.6113 80.3184 28.2997C79.8212 27.9882 79.2644 27.8324 78.6479 27.8324C78.0314 27.8324 77.473 27.9882 76.9725 28.2997C76.4753 28.6113 76.0792 29.0703 75.7843 29.6768C75.4926 30.2834 75.3468 31.0275 75.3468 31.9091C75.3468 32.7907 75.4926 33.5348 75.7843 34.1413C76.0792 34.7479 76.4753 35.2069 76.9725 35.5185C77.473 35.83 78.0314 35.9858 78.6479 35.9858C79.2644 35.9858 79.8212 35.83 80.3184 35.5185C80.8188 35.2069 81.2149 34.7479 81.5066 34.1413C81.8016 33.5348 81.949 32.7907 81.949 31.9091ZM85.2154 37V26.8182H86.4483V35.9062H91.1813V37H85.2154ZM93.0904 37V26.8182H99.2353V27.9119H94.3233V31.3523H98.9171V32.446H94.3233V35.9062H99.3148V37H93.0904Z" fill="white"/>
</svg>
