<svg width="200" height="12" viewBox="0 0 200 12" fill="none" xmlns="http://www.w3.org/2000/svg">
<path d="M0.880682 10V2.72727H3.33807C3.90862 2.72727 4.375 2.83026 4.73722 3.03622C5.1018 3.23982 5.37169 3.51562 5.54688 3.86364C5.72206 4.21165 5.80966 4.59991 5.80966 5.02841C5.80966 5.45691 5.72206 5.84635 5.54688 6.19673C5.37405 6.54711 5.10653 6.82647 4.74432 7.0348C4.3821 7.24077 3.91809 7.34375 3.35227 7.34375H1.59091V6.5625H3.32386C3.71449 6.5625 4.02817 6.49503 4.26491 6.36009C4.50166 6.22514 4.6733 6.04285 4.77983 5.81321C4.88873 5.5812 4.94318 5.3196 4.94318 5.02841C4.94318 4.73722 4.88873 4.4768 4.77983 4.24716C4.6733 4.01752 4.50047 3.83759 4.26136 3.70739C4.02225 3.57481 3.70502 3.50852 3.30966 3.50852H1.76136V10H0.880682ZM13.3647 6.36364C13.3647 7.13068 13.2262 7.79356 12.9492 8.35227C12.6722 8.91098 12.2923 9.34186 11.8093 9.64489C11.3263 9.94792 10.7747 10.0994 10.1545 10.0994C9.53421 10.0994 8.9826 9.94792 8.49964 9.64489C8.01669 9.34186 7.63672 8.91098 7.35973 8.35227C7.08274 7.79356 6.94425 7.13068 6.94425 6.36364C6.94425 5.59659 7.08274 4.93371 7.35973 4.375C7.63672 3.81629 8.01669 3.38542 8.49964 3.08239C8.9826 2.77936 9.53421 2.62784 10.1545 2.62784C10.7747 2.62784 11.3263 2.77936 11.8093 3.08239C12.2923 3.38542 12.6722 3.81629 12.9492 4.375C13.2262 4.93371 13.3647 5.59659 13.3647 6.36364ZM12.5124 6.36364C12.5124 5.7339 12.4071 5.20241 12.1964 4.76918C11.988 4.33594 11.7051 4.00805 11.3477 3.78551C10.9925 3.56297 10.5948 3.4517 10.1545 3.4517C9.71413 3.4517 9.31522 3.56297 8.95774 3.78551C8.60263 4.00805 8.31972 4.33594 8.10902 4.76918C7.90069 5.20241 7.79652 5.7339 7.79652 6.36364C7.79652 6.99337 7.90069 7.52486 8.10902 7.9581C8.31972 8.39134 8.60263 8.71922 8.95774 8.94176C9.31522 9.1643 9.71413 9.27557 10.1545 9.27557C10.5948 9.27557 10.9925 9.1643 11.3477 8.94176C11.7051 8.71922 11.988 8.39134 12.1964 7.9581C12.4071 7.52486 12.5124 6.99337 12.5124 6.36364ZM16.1665 10L14.1779 2.72727H15.0728L16.5927 8.65057H16.6637L18.212 2.72727H19.2063L20.7546 8.65057H20.8256L22.3455 2.72727H23.2404L21.2518 10H20.3427L18.7376 4.20455H18.6808L17.0756 10H16.1665ZM24.3377 10V2.72727H28.7269V3.50852H25.2184V5.96591H28.4996V6.74716H25.2184V9.21875H28.7837V10H24.3377ZM30.3143 10V2.72727H32.7717C33.3398 2.72727 33.8062 2.82434 34.1708 3.01847C34.5354 3.21023 34.8053 3.47419 34.9805 3.81037C35.1557 4.14654 35.2433 4.52888 35.2433 4.95739C35.2433 5.38589 35.1557 5.76586 34.9805 6.0973C34.8053 6.42874 34.5366 6.68916 34.1744 6.87855C33.8121 7.06558 33.3493 7.15909 32.7859 7.15909H30.7972V6.36364H32.7575C33.1457 6.36364 33.4582 6.30682 33.695 6.19318C33.9341 6.07955 34.1069 5.91856 34.2134 5.71023C34.3223 5.49953 34.3768 5.24858 34.3768 4.95739C34.3768 4.66619 34.3223 4.41169 34.2134 4.19389C34.1045 3.97609 33.9305 3.808 33.6914 3.68963C33.4523 3.56889 33.1362 3.50852 32.7433 3.50852H31.195V10H30.3143ZM33.7376 6.73295L35.5273 10H34.5046L32.7433 6.73295H33.7376ZM36.7108 10V2.72727H41.1V3.50852H37.5914V5.96591H40.8727V6.74716H37.5914V9.21875H41.1568V10H36.7108ZM44.9316 10H42.6873V2.72727H45.0311C45.7366 2.72727 46.3403 2.87287 46.8422 3.16406C47.344 3.45289 47.7288 3.86837 47.9963 4.41051C48.2638 4.95028 48.3975 5.59659 48.3975 6.34943C48.3975 7.10701 48.2626 7.75923 47.9927 8.30611C47.7228 8.85062 47.3298 9.26965 46.8137 9.56321C46.2976 9.8544 45.6703 10 44.9316 10ZM43.568 9.21875H44.8748C45.4761 9.21875 45.9745 9.10275 46.3699 8.87074C46.7652 8.63873 47.06 8.30848 47.2541 7.87997C47.4482 7.45147 47.5453 6.94129 47.5453 6.34943C47.5453 5.76231 47.4494 5.25687 47.2576 4.8331C47.0659 4.40696 46.7794 4.08026 46.3983 3.85298C46.0171 3.62334 45.5424 3.50852 44.9743 3.50852H43.568V9.21875ZM52.6873 10V2.72727H55.2299C55.7366 2.72727 56.1544 2.81487 56.4835 2.99006C56.8126 3.16288 57.0576 3.39607 57.2186 3.68963C57.3796 3.98082 57.46 4.30398 57.46 4.65909C57.46 4.97159 57.4044 5.22964 57.2931 5.43324C57.1842 5.63684 57.0398 5.79782 56.8599 5.91619C56.6824 6.03456 56.4894 6.12216 56.2811 6.17898V6.25C56.5036 6.2642 56.7273 6.34233 56.9522 6.48438C57.1771 6.62642 57.3654 6.83002 57.5169 7.09517C57.6684 7.36032 57.7441 7.68466 57.7441 8.06818C57.7441 8.43277 57.6613 8.76065 57.4956 9.05185C57.3298 9.34304 57.0682 9.57386 56.7108 9.74432C56.3533 9.91477 55.8881 10 55.3152 10H52.6873ZM53.568 9.21875H55.3152C55.8904 9.21875 56.2988 9.10748 56.5403 8.88494C56.7842 8.66004 56.9061 8.38778 56.9061 8.06818C56.9061 7.82197 56.8433 7.5947 56.7179 7.38636C56.5924 7.17566 56.4136 7.00758 56.1816 6.8821C55.9496 6.75426 55.675 6.69034 55.3578 6.69034H53.568V9.21875ZM53.568 5.9233H55.2015C55.4667 5.9233 55.7058 5.87121 55.9189 5.76705C56.1343 5.66288 56.3047 5.5161 56.4302 5.3267C56.5581 5.13731 56.622 4.91477 56.622 4.65909C56.622 4.33949 56.5107 4.06842 56.2882 3.84588C56.0656 3.62098 55.7129 3.50852 55.2299 3.50852H53.568V5.9233ZM58.5662 2.72727H59.5748L61.5918 6.12216H61.677L63.6941 2.72727H64.7026L62.0748 7.00284V10H61.1941V7.00284L58.5662 2.72727ZM68.2564 3.50852V2.72727H73.7109V3.50852H71.424V10H70.5433V3.50852H68.2564ZM75.0701 10V2.72727H75.9508V5.96591H79.8287V2.72727H80.7093V10H79.8287V6.74716H75.9508V10H75.0701ZM82.4725 10V2.72727H86.8617V3.50852H83.3532V5.96591H86.6344V6.74716H83.3532V9.21875H86.9185V10H82.4725ZM92.5506 2.72727V10H91.013V2.72727H92.5506ZM99.8988 2.72727V10H98.5707L95.4066 5.42259H95.3533V10H93.8157V2.72727H95.1651L98.3043 7.30114H98.3683V2.72727H99.8988ZM100.892 3.99503V2.72727H106.865V3.99503H104.639V10H103.119V3.99503H100.892ZM107.849 10V2.72727H112.749V3.99503H109.387V5.72798H112.497V6.99574H109.387V8.73224H112.764V10H107.849ZM113.972 10V2.72727H116.841C117.391 2.72727 117.859 2.82552 118.248 3.02202C118.638 3.21615 118.935 3.49195 119.139 3.84943C119.345 4.20455 119.448 4.6224 119.448 5.10298C119.448 5.58594 119.344 6.00142 119.135 6.34943C118.927 6.69508 118.625 6.96023 118.23 7.14489C117.837 7.32955 117.361 7.42188 116.802 7.42188H114.881V6.18608H116.554C116.847 6.18608 117.091 6.14583 117.285 6.06534C117.479 5.98485 117.624 5.86411 117.718 5.70312C117.815 5.54214 117.864 5.34209 117.864 5.10298C117.864 4.86151 117.815 4.65791 117.718 4.49219C117.624 4.32647 117.478 4.20099 117.282 4.11577C117.087 4.02817 116.842 3.98438 116.547 3.98438H115.51V10H113.972ZM117.9 6.69034L119.707 10H118.01L116.241 6.69034H117.9ZM126.618 2.72727V10H125.289L122.125 5.42259H122.072V10H120.534V2.72727H121.884L125.023 7.30114H125.087V2.72727H126.618ZM127.888 10V2.72727H132.789V3.99503H129.426V5.72798H132.536V6.99574H129.426V8.73224H132.803V10H127.888ZM133.734 3.99503V2.72727H139.707V3.99503H137.48V10H135.961V3.99503H133.734ZM149.422 5.27344H147.867C147.838 5.07221 147.78 4.89347 147.693 4.73722C147.605 4.5786 147.493 4.44366 147.355 4.33239C147.218 4.22112 147.059 4.13589 146.879 4.0767C146.702 4.01752 146.509 3.98793 146.301 3.98793C145.924 3.98793 145.596 4.08144 145.317 4.26847C145.038 4.45312 144.821 4.72301 144.667 5.07812C144.513 5.43087 144.436 5.85937 144.436 6.36364C144.436 6.8821 144.513 7.31771 144.667 7.67045C144.823 8.0232 145.041 8.28954 145.32 8.46946C145.6 8.64938 145.923 8.73935 146.29 8.73935C146.496 8.73935 146.686 8.71212 146.862 8.65767C147.039 8.60322 147.197 8.52391 147.334 8.41974C147.471 8.31321 147.585 8.18419 147.675 8.03267C147.767 7.88116 147.831 7.70833 147.867 7.5142L149.422 7.52131C149.382 7.85511 149.281 8.17708 149.12 8.48722C148.962 8.79498 148.747 9.07079 148.477 9.31463C148.21 9.55611 147.89 9.74787 147.519 9.88991C147.149 10.0296 146.731 10.0994 146.265 10.0994C145.616 10.0994 145.036 9.95265 144.525 9.65909C144.016 9.36553 143.614 8.94058 143.318 8.38423C143.024 7.82789 142.877 7.15436 142.877 6.36364C142.877 5.57055 143.026 4.89583 143.325 4.33949C143.623 3.78314 144.028 3.35937 144.539 3.06818C145.051 2.77462 145.626 2.62784 146.265 2.62784C146.686 2.62784 147.077 2.68703 147.437 2.8054C147.799 2.92377 148.12 3.09659 148.399 3.32386C148.679 3.54877 148.906 3.82457 149.081 4.15128C149.259 4.47798 149.372 4.85204 149.422 5.27344ZM157.208 6.36364C157.208 7.15672 157.058 7.83144 156.757 8.38778C156.459 8.94413 156.051 9.36908 155.535 9.66264C155.022 9.95384 154.444 10.0994 153.802 10.0994C153.156 10.0994 152.576 9.95265 152.062 9.65909C151.549 9.36553 151.143 8.94058 150.844 8.38423C150.546 7.82789 150.397 7.15436 150.397 6.36364C150.397 5.57055 150.546 4.89583 150.844 4.33949C151.143 3.78314 151.549 3.35937 152.062 3.06818C152.576 2.77462 153.156 2.62784 153.802 2.62784C154.444 2.62784 155.022 2.77462 155.535 3.06818C156.051 3.35937 156.459 3.78314 156.757 4.33949C157.058 4.89583 157.208 5.57055 157.208 6.36364ZM155.649 6.36364C155.649 5.84991 155.572 5.41667 155.418 5.06392C155.267 4.71117 155.052 4.44366 154.775 4.26136C154.498 4.07907 154.174 3.98793 153.802 3.98793C153.431 3.98793 153.106 4.07907 152.829 4.26136C152.552 4.44366 152.337 4.71117 152.183 5.06392C152.032 5.41667 151.956 5.84991 151.956 6.36364C151.956 6.87737 152.032 7.31061 152.183 7.66335C152.337 8.0161 152.552 8.28362 152.829 8.46591C153.106 8.6482 153.431 8.73935 153.802 8.73935C154.174 8.73935 154.498 8.6482 154.775 8.46591C155.052 8.28362 155.267 8.0161 155.418 7.66335C155.572 7.31061 155.649 6.87737 155.649 6.36364ZM158.347 2.72727H160.243L162.246 7.61364H162.331L164.334 2.72727H166.23V10H164.739V5.26634H164.679L162.797 9.96449H161.781L159.899 5.24858H159.838V10H158.347V2.72727ZM167.497 10V2.72727H170.367C170.918 2.72727 171.388 2.83262 171.776 3.04332C172.165 3.25166 172.461 3.54167 172.664 3.91335C172.87 4.28267 172.973 4.70881 172.973 5.19176C172.973 5.67472 172.869 6.10085 172.661 6.47017C172.452 6.83949 172.151 7.12713 171.755 7.3331C171.362 7.53906 170.886 7.64205 170.328 7.64205H168.499V6.4098H170.079C170.375 6.4098 170.619 6.3589 170.811 6.2571C171.005 6.15294 171.149 6.00971 171.244 5.82741C171.341 5.64276 171.389 5.43087 171.389 5.19176C171.389 4.95028 171.341 4.73958 171.244 4.55966C171.149 4.37737 171.005 4.23651 170.811 4.13707C170.616 4.03527 170.37 3.98438 170.072 3.98438H169.035V10H167.497ZM178.464 2.72727H180.002V7.45028C180.002 7.98059 179.875 8.4446 179.622 8.84233C179.371 9.24006 179.019 9.55019 178.567 9.77273C178.115 9.9929 177.588 10.103 176.987 10.103C176.383 10.103 175.855 9.9929 175.403 9.77273C174.951 9.55019 174.599 9.24006 174.348 8.84233C174.097 8.4446 173.972 7.98059 173.972 7.45028V2.72727H175.51V7.31889C175.51 7.59588 175.57 7.84209 175.691 8.05753C175.814 8.27296 175.987 8.44223 176.209 8.56534C176.432 8.68845 176.691 8.75 176.987 8.75C177.285 8.75 177.544 8.68845 177.765 8.56534C177.987 8.44223 178.159 8.27296 178.279 8.05753C178.403 7.84209 178.464 7.59588 178.464 7.31889V2.72727ZM180.99 3.99503V2.72727H186.963V3.99503H184.736V10H183.216V3.99503H180.99ZM187.947 10V2.72727H192.847V3.99503H189.484V5.72798H192.595V6.99574H189.484V8.73224H192.861V10H187.947ZM194.07 10V2.72727H196.939C197.488 2.72727 197.957 2.82552 198.345 3.02202C198.736 3.21615 199.033 3.49195 199.237 3.84943C199.442 4.20455 199.545 4.6224 199.545 5.10298C199.545 5.58594 199.441 6.00142 199.233 6.34943C199.025 6.69508 198.723 6.96023 198.327 7.14489C197.934 7.32955 197.459 7.42188 196.9 7.42188H194.979V6.18608H196.651C196.945 6.18608 197.189 6.14583 197.383 6.06534C197.577 5.98485 197.721 5.86411 197.816 5.70312C197.913 5.54214 197.962 5.34209 197.962 5.10298C197.962 4.86151 197.913 4.65791 197.816 4.49219C197.721 4.32647 197.576 4.20099 197.379 4.11577C197.185 4.02817 196.94 3.98438 196.644 3.98438H195.607V10H194.07ZM197.997 6.69034L199.805 10H198.107L196.339 6.69034H197.997Z" fill="white"/>
</svg>
