<svg width="121" height="40" viewBox="0 0 121 40" fill="none" xmlns="http://www.w3.org/2000/svg">
<path d="M23.2727 5.82143V4.28571C23.2679 3.15052 22.8067 2.06316 21.9894 1.26045C21.1721 0.457739 20.0649 0.00470066 18.9091 0H13.0909C11.9351 0.00470066 10.8279 0.457739 10.0106 1.26045C9.19333 2.06316 8.73206 3.15052 8.72727 4.28571V5.82143C6.3048 6.16484 4.08935 7.3538 2.48661 9.1706C0.883875 10.9874 0.00112006 13.3104 0 15.7143V37.1429C0 37.9006 0.306493 38.6273 0.852053 39.1632C1.39761 39.699 2.13755 40 2.90909 40H29.0909C29.8624 40 30.6024 39.699 31.1479 39.1632C31.6935 38.6273 32 37.9006 32 37.1429V15.7143C31.9989 13.3104 31.1161 10.9874 29.5134 9.1706C27.9107 7.3538 25.6952 6.16484 23.2727 5.82143V5.82143ZM13.0909 2.85714H18.9091C19.2949 2.85714 19.6648 3.00765 19.9376 3.27556C20.2104 3.54347 20.3636 3.90683 20.3636 4.28571V5.71429H11.6364V4.28571C11.6364 3.90683 11.7896 3.54347 12.0624 3.27556C12.3352 3.00765 12.7051 2.85714 13.0909 2.85714V2.85714ZM23.2727 27.1429H8.72727V25.7143C8.72727 25.3354 8.88052 24.972 9.1533 24.7041C9.42608 24.4362 9.79605 24.2857 10.1818 24.2857H21.8182C22.204 24.2857 22.5739 24.4362 22.8467 24.7041C23.1195 24.972 23.2727 25.3354 23.2727 25.7143V27.1429ZM8.72727 30H17.4545V31.4286C17.4545 31.8075 17.6078 32.1708 17.8806 32.4387C18.1534 32.7066 18.5233 32.8571 18.9091 32.8571C19.2949 32.8571 19.6648 32.7066 19.9376 32.4387C20.2104 32.1708 20.3636 31.8075 20.3636 31.4286V30H23.2727V37.1429H8.72727V30ZM29.0909 37.1429H26.1818V25.7143C26.177 24.5791 25.7158 23.4917 24.8985 22.689C24.0811 21.8863 22.974 21.4333 21.8182 21.4286H10.1818C9.02598 21.4333 7.91885 21.8863 7.10155 22.689C6.28424 23.4917 5.82297 24.5791 5.81818 25.7143V37.1429H2.90909V15.7143C2.90909 13.8199 3.67532 12.0031 5.03922 10.6635C6.40312 9.32398 8.25297 8.57143 10.1818 8.57143H21.8182C23.747 8.57143 25.5969 9.32398 26.9608 10.6635C28.3247 12.0031 29.0909 13.8199 29.0909 15.7143V37.1429ZM20.3636 14.2857C20.3636 14.6646 20.2104 15.028 19.9376 15.2959C19.6648 15.5638 19.2949 15.7143 18.9091 15.7143H13.0909C12.7051 15.7143 12.3352 15.5638 12.0624 15.2959C11.7896 15.028 11.6364 14.6646 11.6364 14.2857C11.6364 13.9068 11.7896 13.5435 12.0624 13.2756C12.3352 13.0077 12.7051 12.8571 13.0909 12.8571H18.9091C19.2949 12.8571 19.6648 13.0077 19.9376 13.2756C20.2104 13.5435 20.3636 13.9068 20.3636 14.2857Z" fill="white"/>
<path d="M43.4659 17.8182V28H42.233V17.8182H43.4659ZM54.0119 17.8182V28H52.8187L47.2704 20.0057H47.171V28H45.938V17.8182H47.1312L52.6994 25.8324H52.7988V17.8182H54.0119ZM56.8967 17.8182L59.9194 26.3892H60.0387L63.0614 17.8182H64.354L60.6154 28H59.3427L55.604 17.8182H56.8967ZM65.94 28V17.8182H72.0849V18.9119H67.1729V22.3523H71.7667V23.446H67.1729V26.9062H72.1644V28H65.94ZM82.381 17.8182V28H81.1879L75.6396 20.0057H75.5401V28H74.3072V17.8182H75.5004L81.0685 25.8324H81.168V17.8182H82.381ZM84.2914 18.9119V17.8182H91.9277V18.9119H88.726V28H87.4931V18.9119H84.2914ZM101.998 22.9091C101.998 23.983 101.804 24.911 101.416 25.6932C101.028 26.4754 100.496 27.0786 99.8201 27.5028C99.144 27.9271 98.3717 28.1392 97.5034 28.1392C96.635 28.1392 95.8627 27.9271 95.1866 27.5028C94.5105 27.0786 93.9785 26.4754 93.5907 25.6932C93.2029 24.911 93.0091 23.983 93.0091 22.9091C93.0091 21.8352 93.2029 20.9072 93.5907 20.125C93.9785 19.3428 94.5105 18.7396 95.1866 18.3153C95.8627 17.8911 96.635 17.679 97.5034 17.679C98.3717 17.679 99.144 17.8911 99.8201 18.3153C100.496 18.7396 101.028 19.3428 101.416 20.125C101.804 20.9072 101.998 21.8352 101.998 22.9091ZM100.805 22.9091C100.805 22.0275 100.657 21.2834 100.362 20.6768C100.07 20.0703 99.6743 19.6113 99.1738 19.2997C98.6767 18.9882 98.1199 18.8324 97.5034 18.8324C96.8869 18.8324 96.3284 18.9882 95.8279 19.2997C95.3308 19.6113 94.9347 20.0703 94.6397 20.6768C94.3481 21.2834 94.2022 22.0275 94.2022 22.9091C94.2022 23.7907 94.3481 24.5348 94.6397 25.1413C94.9347 25.7479 95.3308 26.2069 95.8279 26.5185C96.3284 26.83 96.8869 26.9858 97.5034 26.9858C98.1199 26.9858 98.6767 26.83 99.1738 26.5185C99.6743 26.2069 100.07 25.7479 100.362 25.1413C100.657 24.5348 100.805 23.7907 100.805 22.9091ZM104.071 28V17.8182H107.511C108.307 17.8182 108.96 17.9541 109.47 18.2259C109.98 18.4943 110.358 18.8639 110.604 19.3345C110.849 19.8052 110.971 20.3404 110.971 20.9403C110.971 21.5402 110.849 22.0722 110.604 22.5362C110.358 23.0002 109.982 23.3648 109.475 23.63C108.968 23.8918 108.32 24.0227 107.531 24.0227H104.747V22.9091H107.491C108.035 22.9091 108.472 22.8295 108.804 22.6705C109.139 22.5114 109.381 22.286 109.53 21.9943C109.682 21.6993 109.758 21.348 109.758 20.9403C109.758 20.5327 109.682 20.1764 109.53 19.8714C109.377 19.5665 109.134 19.3312 108.799 19.1655C108.464 18.9964 108.022 18.9119 107.471 18.9119H105.304V28H104.071ZM108.863 23.4261L111.369 28H109.937L107.471 23.4261H108.863ZM111.809 17.8182H113.221L116.045 22.571H116.164L118.988 17.8182H120.4L116.721 23.804V28H115.488V23.804L111.809 17.8182Z" fill="white"/>
</svg>
