<svg width="95" height="38" viewBox="0 0 95 38" fill="none" xmlns="http://www.w3.org/2000/svg">
<path d="M78.0958 0.000944024C74.8694 0.0399231 71.5223 1.24316 68.4495 3.7314H75.084V7.23854C79.4339 4.82265 84.5317 4.67339 88.6001 7.24097L87.1006 8.0303L92.4339 12.1491L92.1247 5.38346L89.9476 6.53058C87.0792 2.33904 82.8783 0.0532409 78.4154 0.000944024C78.3089 -0.000314675 78.2024 -0.000314675 78.0959 0.000944024H78.0958ZM56 5.2489V22.5255H73.5432V5.2489H56.0002H56ZM60.1456 7.3627H71.3969V18.6454H69.8537V8.88037H60.1457V7.36278L60.1456 7.3627ZM60.4213 10.4588L67.8493 17.9172L66.7491 18.9805L59.3211 11.5221L60.4213 10.4588V10.4588ZM77.4594 15.4733V32.7525H95V15.4734H77.4594V15.4733ZM81.6024 17.5898H92.8538V28.8698H91.3132V19.1072H81.6026L81.6025 17.5897L81.6024 17.5898ZM81.8781 20.6833L89.3086 28.1441L88.2086 29.2048L80.7781 21.7465L81.8782 20.6834L81.8781 20.6833ZM58.9142 25.8526L59.2233 32.618L61.1453 31.6054C66.1686 38.8033 75.1605 40.2526 82.5506 34.2701H75.9187V30.7629C71.6248 33.1488 66.6022 33.3245 62.5598 30.8594L64.2447 29.9712L58.9141 25.8526H58.9142Z" fill="white"/>
<path d="M0.676136 16.9119V15.8182H8.3125V16.9119H5.1108V26H3.87784V16.9119H0.676136ZM10.2154 26V15.8182H13.6557C14.4512 15.8182 15.1041 15.9541 15.6145 16.2259C16.1249 16.4943 16.5028 16.8639 16.748 17.3345C16.9933 17.8052 17.1159 18.3404 17.1159 18.9403C17.1159 19.5402 16.9933 20.0722 16.748 20.5362C16.5028 21.0002 16.1266 21.3648 15.6195 21.63C15.1124 21.8918 14.4644 22.0227 13.6756 22.0227H10.8915V20.9091H13.6358C14.1794 20.9091 14.6169 20.8295 14.9483 20.6705C15.2831 20.5114 15.525 20.286 15.6742 19.9943C15.8266 19.6993 15.9029 19.348 15.9029 18.9403C15.9029 18.5327 15.8266 18.1764 15.6742 17.8714C15.5217 17.5665 15.2781 17.3312 14.9434 17.1655C14.6086 16.9964 14.1661 16.9119 13.6159 16.9119H11.4483V26H10.2154ZM15.008 21.4261L17.5137 26H16.0819L13.6159 21.4261H15.008ZM19.5881 26H18.2955L22.0341 15.8182H23.3068L27.0455 26H25.7528L22.7102 17.429H22.6307L19.5881 26ZM20.0653 22.0227H25.2756V23.1165H20.0653V22.0227ZM31.7734 26H28.6314V15.8182H31.9126C32.9003 15.8182 33.7455 16.022 34.4482 16.4297C35.1508 16.834 35.6894 17.4157 36.0639 18.1747C36.4384 18.9304 36.6257 19.8352 36.6257 20.8892C36.6257 21.9498 36.4368 22.8629 36.0589 23.6286C35.6811 24.3909 35.1309 24.9775 34.4084 25.3885C33.6858 25.7962 32.8075 26 31.7734 26ZM29.8643 24.9062H31.6939C32.5357 24.9062 33.2334 24.7438 33.7869 24.419C34.3404 24.0942 34.7531 23.6319 35.0249 23.032C35.2966 22.4321 35.4325 21.7178 35.4325 20.8892C35.4325 20.0672 35.2983 19.3596 35.0298 18.7663C34.7614 18.1697 34.3603 17.7124 33.8267 17.3942C33.2931 17.0727 32.6286 16.9119 31.8331 16.9119H29.8643V24.9062ZM38.6939 26V15.8182H44.8388V16.9119H39.9268V20.3523H44.5206V21.446H39.9268V24.9062H44.9183V26H38.6939Z" fill="white"/>
</svg>
