<svg width="102" height="40" viewBox="0 0 102 40" fill="none" xmlns="http://www.w3.org/2000/svg">
<path d="M17.7614 5.54545L14.8636 23H12.8182L5.59091 9.29545H5.42045L3.13636 23H1.02273L3.92045 5.54545H5.96591L13.2273 19.2841H13.3977L15.6818 5.54545H17.7614ZM23.0135 5.54545L26.3203 12.8068H26.4567L32.1499 5.54545H34.6385L27.718 14.2727L31.7408 23H29.2521L25.9453 15.875H25.8089L20.1158 23H17.6271L24.718 14.2727L20.5249 5.54545H23.0135ZM46.1847 10.0455C46.1847 9.10795 45.875 8.39773 45.2557 7.91477C44.6364 7.42614 43.7983 7.18182 42.7415 7.18182C41.9688 7.18182 41.2727 7.30682 40.6534 7.55682C40.0341 7.80682 39.5284 8.15057 39.1364 8.58807C38.7443 9.02557 38.5028 9.52273 38.4119 10.0795C38.3381 10.5455 38.3864 10.946 38.5568 11.2812C38.7273 11.6108 38.9688 11.8864 39.2812 12.108C39.5994 12.3239 39.9403 12.5028 40.304 12.6449C40.6676 12.7812 41.0028 12.892 41.3097 12.9773L43.0142 13.4545C43.4403 13.5739 43.9148 13.7386 44.4375 13.9489C44.9602 14.1591 45.4489 14.446 45.9034 14.8097C46.358 15.1676 46.7045 15.6278 46.9432 16.1903C47.1875 16.7528 47.2415 17.4432 47.1051 18.2614C46.946 19.2045 46.5568 20.0568 45.9375 20.8182C45.3239 21.5795 44.5114 22.1847 43.5 22.6335C42.4943 23.0824 41.321 23.3068 39.9801 23.3068C38.7301 23.3068 37.679 23.1051 36.8267 22.7017C35.9801 22.2983 35.3551 21.7358 34.9517 21.0142C34.554 20.2926 34.4006 19.4545 34.4915 18.5H36.6733C36.6165 19.1591 36.7472 19.7045 37.0653 20.1364C37.3835 20.5625 37.8267 20.8807 38.3949 21.0909C38.9631 21.2955 39.5938 21.3977 40.2869 21.3977C41.0938 21.3977 41.8381 21.267 42.5199 21.0057C43.2074 20.7386 43.7756 20.3693 44.2244 19.8977C44.679 19.4205 44.9574 18.8636 45.0597 18.2273C45.1619 17.6477 45.0824 17.1761 44.821 16.8125C44.5597 16.4489 44.1818 16.1534 43.6875 15.9261C43.1932 15.6989 42.6506 15.5 42.0597 15.3295L40.0142 14.7159C38.7188 14.3239 37.733 13.7642 37.0568 13.0369C36.3864 12.3097 36.1449 11.358 36.3324 10.1818C36.5028 9.20454 36.9148 8.35227 37.5682 7.625C38.2216 6.89205 39.0313 6.32386 39.9972 5.92045C40.9631 5.51136 42.0028 5.30682 43.1165 5.30682C44.2415 5.30682 45.2045 5.51136 46.0057 5.92045C46.8068 6.32386 47.4034 6.88352 47.7955 7.59943C48.1875 8.30966 48.3324 9.125 48.2301 10.0455H46.1847ZM58.6257 13.3352L58.3189 15.2102H50.6825L50.9893 13.3352H58.6257ZM66.1875 23.2386C64.9034 23.2386 63.8693 22.8892 63.0852 22.1903C62.3011 21.4858 61.7841 20.4659 61.5341 19.1307C61.2841 17.7898 61.3125 16.1705 61.6193 14.2727C61.9261 12.3864 62.429 10.7756 63.1278 9.44034C63.8267 8.09943 64.6875 7.0767 65.7102 6.37216C66.733 5.66193 67.8807 5.30682 69.1534 5.30682C70.4261 5.30682 71.4574 5.66193 72.2472 6.37216C73.0426 7.08239 73.571 8.10511 73.8324 9.44034C74.0994 10.7756 74.0739 12.3864 73.7557 14.2727C73.4375 16.1705 72.929 17.7869 72.2301 19.1222C71.5312 20.4574 70.6705 21.4773 69.6477 22.1818C68.625 22.8864 67.4716 23.2386 66.1875 23.2386ZM66.4943 21.3636C67.7727 21.3636 68.8665 20.75 69.7756 19.5227C70.6903 18.2898 71.3352 16.5398 71.7102 14.2727C71.9602 12.7614 72.0114 11.4744 71.8636 10.4119C71.7159 9.34943 71.3864 8.53977 70.875 7.98295C70.3636 7.42614 69.6875 7.14773 68.8466 7.14773C67.5852 7.14773 66.5 7.76989 65.5909 9.0142C64.6818 10.2528 64.0398 12.0057 63.6648 14.2727C63.4148 15.7841 63.3608 17.0682 63.5028 18.125C63.6449 19.1818 63.9688 19.9858 64.4744 20.5369C64.9801 21.0881 65.6534 21.3636 66.4943 21.3636ZM81.1875 23.2386C79.9034 23.2386 78.8693 22.8892 78.0852 22.1903C77.3011 21.4858 76.7841 20.4659 76.5341 19.1307C76.2841 17.7898 76.3125 16.1705 76.6193 14.2727C76.9261 12.3864 77.429 10.7756 78.1278 9.44034C78.8267 8.09943 79.6875 7.0767 80.7102 6.37216C81.733 5.66193 82.8807 5.30682 84.1534 5.30682C85.4261 5.30682 86.4574 5.66193 87.2472 6.37216C88.0426 7.08239 88.571 8.10511 88.8324 9.44034C89.0994 10.7756 89.0739 12.3864 88.7557 14.2727C88.4375 16.1705 87.929 17.7869 87.2301 19.1222C86.5312 20.4574 85.6705 21.4773 84.6477 22.1818C83.625 22.8864 82.4716 23.2386 81.1875 23.2386ZM81.4943 21.3636C82.7727 21.3636 83.8665 20.75 84.7756 19.5227C85.6903 18.2898 86.3352 16.5398 86.7102 14.2727C86.9602 12.7614 87.0114 11.4744 86.8636 10.4119C86.7159 9.34943 86.3864 8.53977 85.875 7.98295C85.3636 7.42614 84.6875 7.14773 83.8466 7.14773C82.5852 7.14773 81.5 7.76989 80.5909 9.0142C79.6818 10.2528 79.0398 12.0057 78.6648 14.2727C78.4148 15.7841 78.3608 17.0682 78.5028 18.125C78.6449 19.1818 78.9688 19.9858 79.4744 20.5369C79.9801 21.0881 80.6534 21.3636 81.4943 21.3636ZM99.5625 5.54545L96.6648 23H94.5511L97.0739 7.76136H96.9716L92.233 10.5909L92.608 8.44318L97.4489 5.54545H99.5625Z" fill="white"/>
<path d="M21.233 37V26.8182H22.4659V31.3523H27.8949V26.8182H29.1278V37H27.8949V32.446H22.4659V37H21.233ZM31.5962 37V26.8182H37.7411V27.9119H32.8292V31.3523H37.4229V32.446H32.8292V35.9062H37.8207V37H31.5962ZM39.9634 37V26.8182H41.1964V35.9062H45.9293V37H39.9634ZM47.8384 37V26.8182H51.2788C52.0775 26.8182 52.7305 26.9624 53.2376 27.2507C53.748 27.5357 54.1258 27.9219 54.3711 28.4091C54.6164 28.8963 54.739 29.4399 54.739 30.0398C54.739 30.6397 54.6164 31.1849 54.3711 31.6754C54.1291 32.166 53.7546 32.5571 53.2475 32.8487C52.7404 33.1371 52.0908 33.2812 51.2987 33.2812H48.8327V32.1875H51.2589C51.8058 32.1875 52.2449 32.093 52.5763 31.9041C52.9078 31.7152 53.1481 31.46 53.2972 31.1385C53.4497 30.8137 53.5259 30.4474 53.5259 30.0398C53.5259 29.6321 53.4497 29.2675 53.2972 28.946C53.1481 28.6245 52.9061 28.3726 52.5714 28.1903C52.2366 28.0047 51.7925 27.9119 51.239 27.9119H49.0714V37H47.8384ZM56.7251 37V26.8182H62.87V27.9119H57.9581V31.3523H62.5518V32.446H57.9581V35.9062H62.9496V37H56.7251ZM65.0923 37V26.8182H68.5327C69.3281 26.8182 69.9811 26.9541 70.4915 27.2259C71.0019 27.4943 71.3797 27.8639 71.625 28.3345C71.8703 28.8052 71.9929 29.3404 71.9929 29.9403C71.9929 30.5402 71.8703 31.0722 71.625 31.5362C71.3797 32.0002 71.0036 32.3648 70.4964 32.63C69.9893 32.8918 69.3414 33.0227 68.5526 33.0227H65.7685V31.9091H68.5128C69.0563 31.9091 69.4938 31.8295 69.8253 31.6705C70.16 31.5114 70.402 31.286 70.5511 30.9943C70.7036 30.6993 70.7798 30.348 70.7798 29.9403C70.7798 29.5327 70.7036 29.1764 70.5511 28.8714C70.3987 28.5665 70.1551 28.3312 69.8203 28.1655C69.4856 27.9964 69.0431 27.9119 68.4929 27.9119H66.3253V37H65.0923ZM69.8849 32.4261L72.3906 37H70.9588L68.4929 32.4261H69.8849ZM74.0474 37V26.8182H77.6071C78.3163 26.8182 78.9013 26.9408 79.362 27.1861C79.8227 27.428 80.1658 27.7545 80.3912 28.1655C80.6165 28.5732 80.7292 29.0256 80.7292 29.5227C80.7292 29.9602 80.6513 30.3215 80.4956 30.6065C80.3431 30.8916 80.1409 31.117 79.889 31.2827C79.6404 31.4484 79.3703 31.571 79.0787 31.6506V31.75C79.3902 31.7699 79.7034 31.8793 80.0183 32.0781C80.3332 32.277 80.5967 32.562 80.8088 32.9332C81.0209 33.3045 81.127 33.7585 81.127 34.2955C81.127 34.8059 81.0109 35.2649 80.7789 35.6726C80.5469 36.0803 80.1807 36.4034 79.6802 36.642C79.1797 36.8807 78.5285 37 77.7264 37H74.0474ZM75.2804 35.9062H77.7264C78.5318 35.9062 79.1035 35.7505 79.4416 35.4389C79.783 35.1241 79.9537 34.7429 79.9537 34.2955C79.9537 33.9508 79.8658 33.6326 79.6902 33.3409C79.5145 33.0459 79.2643 32.8106 78.9395 32.6349C78.6146 32.456 78.2302 32.3665 77.786 32.3665H75.2804V35.9062ZM75.2804 31.2926H77.5673C77.9385 31.2926 78.2733 31.2197 78.5716 31.0739C78.8732 30.928 79.1118 30.7225 79.2875 30.4574C79.4664 30.1922 79.5559 29.8807 79.5559 29.5227C79.5559 29.0753 79.4002 28.6958 79.0886 28.3842C78.777 28.0694 78.2832 27.9119 77.6071 27.9119H75.2804V31.2926ZM91.7438 31.9091C91.7438 32.983 91.5499 33.911 91.1621 34.6932C90.7743 35.4754 90.2424 36.0786 89.5662 36.5028C88.8901 36.9271 88.1178 37.1392 87.2495 37.1392C86.3811 37.1392 85.6088 36.9271 84.9327 36.5028C84.2566 36.0786 83.7246 35.4754 83.3368 34.6932C82.949 33.911 82.7551 32.983 82.7551 31.9091C82.7551 30.8352 82.949 29.9072 83.3368 29.125C83.7246 28.3428 84.2566 27.7396 84.9327 27.3153C85.6088 26.8911 86.3811 26.679 87.2495 26.679C88.1178 26.679 88.8901 26.8911 89.5662 27.3153C90.2424 27.7396 90.7743 28.3428 91.1621 29.125C91.5499 29.9072 91.7438 30.8352 91.7438 31.9091ZM90.5506 31.9091C90.5506 31.0275 90.4031 30.2834 90.1081 29.6768C89.8165 29.0703 89.4204 28.6113 88.9199 28.2997C88.4228 27.9882 87.8659 27.8324 87.2495 27.8324C86.633 27.8324 86.0745 27.9882 85.574 28.2997C85.0769 28.6113 84.6808 29.0703 84.3858 29.6768C84.0942 30.2834 83.9483 31.0275 83.9483 31.9091C83.9483 32.7907 84.0942 33.5348 84.3858 34.1413C84.6808 34.7479 85.0769 35.2069 85.574 35.5185C86.0745 35.83 86.633 35.9858 87.2495 35.9858C87.8659 35.9858 88.4228 35.83 88.9199 35.5185C89.4204 35.2069 89.8165 34.7479 90.1081 34.1413C90.4031 33.5348 90.5506 32.7907 90.5506 31.9091ZM92.8363 27.9119V26.8182H100.473V27.9119H97.271V37H96.038V27.9119H92.8363Z" fill="white"/>
</svg>
